<?xml version="1.0" encoding="UTF-8"?><svg id="Layer_1" xmlns="http://www.w3.org/2000/svg" viewBox="0 0 455.93 443.75"><defs><style>.cls-1{fill:#fff;}</style></defs><path class="cls-1" d="M175.3,394.52c0,10.89,.24,21.53-.08,32.16-.24,8.13-7.27,15.69-14.84,16.92-2.03,.33-3.96,.12-5.87-.58C78.28,414.94,28.83,362.03,7.12,283.58,.88,261.07-.91,237.98,.41,214.73,5.52,124.68,62.63,48.67,143.06,16.32,174.44,3.69,207.1-1.52,240.8,.38c103.29,5.84,186.25,79.39,208.8,174.25,5.55,23.37,7.65,47.05,5.52,70.95-5.55,62.25-32.04,113.97-79.21,154.95-21.63,18.8-46.24,32.6-73.27,42.09-6.73,2.36-12.75,.62-17.29-4.93-3.38-4.13-4.85-8.85-4.83-14.21,.08-20.81,.08-41.63,0-62.44-.03-7.59,.13-15.21-1.43-22.71-.54-2.61-1.18-5.22-2.62-7.47-1.19-1.86-.46-2.36,1.26-2.64,7.39-1.21,14.64-3.04,21.79-5.23,23.9-7.29,45.4-18.58,62.05-37.76,13.05-15.03,20.66-32.53,23.05-52.26,2.85-23.55,.12-46.36-9.6-68.14-4.25-9.52-10-18.08-17.04-25.75-1.16-1.26-1.22-2.06-.44-3.59,3.19-6.26,4.48-13.07,5.06-19.99,1.18-14.05-.41-27.6-7.29-40.26-2.04-3.74-4.34-5.32-8.89-4.97-19.75,1.52-37.09,8.73-52.5,20.97-2.98,2.37-5.78,4.93-8.39,7.69-.75,.8-1.35,1.37-2.65,.92-14.66-5.07-29.89-6.92-45.27-7.55-20.58-.84-41.02,.41-60.78,6.74-4.26,1.36-6.46,.51-9.54-2.42-17.03-16.19-37.14-25.57-60.92-26.38-1.97-.07-3.09,.57-4.14,2.18-6.91,10.54-9.35,22.27-9.27,34.64,.06,9.27,1.4,18.34,5.4,26.84,2.11,4.48,2.15,4.44-1.22,8.29-14.39,16.46-22.76,35.62-25.64,57.24-2.43,18.21-1.69,36.19,4.31,53.7,8.59,25.08,25.46,43.16,48.14,56.17,16.77,9.61,34.92,15.43,53.87,18.84,2.33,.42,2.77,.88,1.69,3.29-3.56,7.95-3.93,16.55-4.08,25.09-.04,2.24-.53,3.45-2.81,4-22.57,5.45-43.33,3.11-60.7-13.96-2.31-2.27-4.1-4.96-5.85-7.69-7.85-12.28-18.62-20.27-33.3-22.46-3.27-.49-6.46-.11-9.54,.96-3.17,1.09-3.75,3.2-1.76,5.95,1.29,1.78,2.88,3.34,4.7,4.53,10.59,6.89,17.31,16.93,22.42,28.1,3.53,7.72,7.19,15.21,13.29,21.32,11.54,11.56,25.53,17.66,41.65,19.37,10.61,1.12,21.03-.04,31.76-2.12Z"/></svg>