<?xml version="1.0" encoding="UTF-8"?><svg id="Layer_1" xmlns="http://www.w3.org/2000/svg" viewBox="0 0 358.52 449.86"><defs><style>.cls-1{fill:#fff;stroke:#fff;stroke-width:13px;}</style></defs><path class="cls-1" d="M170.56,235.75c-1.26-21.13-5.64-42.1-13.16-62.93-10.66-30.01-15.98-50.67-15.98-62.01,0-15.92,3.83-28.02,11.52-36.29,7.68-8.27,17.16-12.4,28.44-12.4,9.71,0,18.17,4.13,25.38,12.4,7.21,8.27,10.81,20.06,10.81,35.37,0,13.78-4.16,33-12.46,57.64-8.31,24.65-13.4,47.39-15.28,68.21,17.23-10.72,32.74-23.73,46.54-39.04,21.31-24.19,37.14-39.19,47.48-45.01,10.34-5.81,20.84-8.73,31.5-8.73s19.04,3.44,26.09,10.33c7.05,6.89,10.58,15.08,10.58,24.57,0,11.33-5.17,21.44-15.51,30.31-10.34,8.88-36.2,17.76-77.56,26.64-24.14,5.21-44.19,11.18-60.17,17.91,16.29,8.27,36.2,14.55,59.7,18.83,37.92,6.74,62.76,15.16,74.51,25.26,11.75,10.1,17.63,21.13,17.63,33.07,0,9.19-3.53,17.15-10.58,23.88-7.05,6.74-15.28,10.1-24.68,10.1s-19.82-3.22-31.26-9.65c-11.44-6.43-26.88-20.82-46.3-43.17-12.85-15-28.84-29.09-47.95-42.26,.62,17.45,4.23,36.44,10.81,56.95,11.28,36.13,16.92,60.79,16.92,73.95,0,12.25-3.76,22.58-11.28,31-7.52,8.43-15.51,12.63-23.97,12.63-11.6,0-22.09-4.43-31.5-13.32-6.58-6.43-9.87-16.69-9.87-30.77s3.6-32.38,10.81-53.05c7.21-20.67,11.75-34.91,13.63-42.72,1.88-7.81,3.6-19.36,5.17-34.68-18.49,11.94-34.63,25.26-48.42,39.96-22.88,25.11-40.12,41.04-51.71,47.77-8.15,4.9-16.61,7.35-25.38,7.35-10.66,0-19.74-3.52-27.26-10.56-7.52-7.04-11.28-14.85-11.28-23.42,0-7.65,3.21-15.69,9.64-24.11,6.42-8.42,16.06-15.39,28.91-20.9,8.46-3.68,27.74-8.57,57.82-14.7,19.43-3.98,38.39-9.8,56.88-17.45-16.92-8.27-37.14-14.7-60.64-19.29-38.55-7.96-62.37-15.16-71.45-21.59-14.1-10.11-21.15-22.35-21.15-36.74,0-8.27,3.53-15.85,10.58-22.74,7.05-6.89,15.28-10.33,24.68-10.33,10.34,0,21.31,3.22,32.91,9.65,11.59,6.43,26.01,19.37,43.25,38.81,17.23,19.45,34.79,34.53,52.65,45.24Z"/></svg>